<svg width="303" height="114" viewBox="0 0 303 114" fill="none" xmlns="http://www.w3.org/2000/svg">
<path fill-rule="evenodd" clip-rule="evenodd" d="M0.00170898 62.6763V50.056H100.965V62.6763H0.00170898ZM0.00170898 87.9169V75.2966H100.965V87.9169H0.00170898ZM0.00170898 113.157V100.537H100.965V113.157H0.00170898ZM0.00170898 37.4357V24.8154H55.4257C67.6152 24.8154 79.5909 21.6066 90.148 15.5118L116.287 0.419983L122.598 11.3499L96.4585 26.4417C83.9831 33.6435 69.8309 37.4357 55.4257 37.4357H0.00170898Z" fill="#D50C14"/>
<path fill-rule="evenodd" clip-rule="evenodd" d="M132.89 62.6792H122.981V60.4361L129.777 51.1212H123.119V48.8954H132.787V51.0451L125.921 60.4552H132.89V62.6792ZM138.615 62.6792H136.194V48.8954H141.469C144.599 48.8954 146.415 50.4796 146.415 53.1949C146.415 55.0437 145.55 56.3632 143.924 57.0222L146.553 62.6792H143.907L141.572 57.5324H138.615V62.6792ZM138.615 51.0451V55.4017H141.469C142.99 55.4017 143.89 54.5905 143.89 53.1949C143.89 51.8182 142.99 51.0451 141.469 51.0451H138.615ZM150.963 62.6792H148.456L153.436 48.8954H155.91L160.891 62.6792H158.331L157.224 59.4936H152.07L150.963 62.6792ZM154.353 53.0064L152.797 57.4563H156.532L154.941 53.0064C154.837 52.6484 154.699 52.2333 154.664 51.9514C154.613 52.2143 154.491 52.6293 154.353 53.0064ZM167.549 47.9148L165.837 44.9747H167.635L168.725 46.8408L169.797 44.9747H171.596L169.901 47.9148H167.549ZM168.638 62.9058C164.626 62.9058 162.015 60.1162 162.015 55.7977C162.015 51.5173 164.713 48.6689 168.742 48.6689C172.011 48.6689 174.449 50.5747 174.916 53.5338H172.374C171.89 51.9324 170.524 50.9898 168.69 50.9898C166.148 50.9898 164.54 52.8369 164.54 55.7787C164.54 58.7015 166.165 60.5866 168.69 60.5866C170.558 60.5866 171.994 59.606 172.443 58.0789H174.951C174.432 60.9826 171.89 62.9058 168.638 62.9058ZM180.433 62.6792H178.064V48.8954H180.451L186.919 58.6634V48.8954H189.306V62.6792H186.919L180.433 52.913V62.6792ZM194.494 62.6792H191.986L196.95 48.8954H199.423L204.404 62.6792H201.861L200.755 59.4936H195.601L194.494 62.6792ZM197.884 53.0064L196.31 57.4563H200.045L198.472 53.0064C198.351 52.6484 198.212 52.2333 198.178 51.9514C198.126 52.2143 198.005 52.6293 197.884 53.0064ZM218.43 48.8954V60.4552H224.189V62.6792H216.008V48.8954H218.43ZM226.16 57.6448V48.8954H228.582V57.4943C228.582 59.4745 229.654 60.5676 231.608 60.5676C233.58 60.5676 234.669 59.4555 234.669 57.4943V48.8954H237.091V57.6448C237.091 60.8702 234.981 62.9058 231.608 62.9058C228.27 62.9058 226.16 60.8892 226.16 57.6448ZM243.403 48.8954V56.1367L248.989 48.8954H251.826L247.26 54.779L251.895 62.6792H249.093L245.686 56.8164L243.403 59.7374V62.6792H240.982V48.8954H243.403ZM255.821 62.6792H253.313L258.294 48.8954H260.767L265.748 62.6792H263.205L262.081 59.4936H256.945L255.821 62.6792ZM259.228 53.0064L257.654 57.4563H261.389L259.798 53.0064C259.695 52.6484 259.556 52.2333 259.522 51.9514C259.47 52.2143 259.349 52.6293 259.228 53.0064Z" fill="#A7A9A9"/>
<path fill-rule="evenodd" clip-rule="evenodd" d="M126.336 87.9121H123.914V74.1283H129.172C132.302 74.1283 134.136 75.7125 134.136 78.4277C134.136 80.2748 133.271 81.5944 131.645 82.255L134.274 87.9121H131.628L129.293 82.7635H126.336V87.9121ZM126.336 76.278V80.6328H129.172C130.711 80.6328 131.61 79.8217 131.61 78.4277C131.61 77.0511 130.711 76.278 129.172 76.278H126.336ZM137.352 82.8759V74.1283H139.756V82.7254C139.756 84.7057 140.828 85.7987 142.8 85.7987C144.754 85.7987 145.844 84.6867 145.844 82.7254V74.1283H148.265V82.8759C148.265 86.1014 146.155 88.1369 142.8 88.1369C139.462 88.1369 137.352 86.1204 137.352 82.8759ZM150.877 82.0094V80.0292H152.157V74.1283H156.999C161.063 74.1283 163.882 76.9369 163.882 81.0479C163.882 85.1017 161.115 87.9121 157.12 87.9121H152.157V82.0094H150.877ZM157.362 82.0094H154.578V85.6863H156.895C159.645 85.6863 161.323 83.9136 161.323 81.0479C161.323 78.1251 159.61 76.3524 156.774 76.3524H154.578V80.0292H157.362V82.0094ZM175.625 87.9121H167.064V74.1283H175.625V76.3524H169.468V79.8978H174.985V82.0285H169.468V85.6863H175.625V87.9121ZM181.592 87.9121H179.188V74.1283H184.445C187.576 74.1283 189.409 75.7125 189.409 78.4277C189.409 80.2748 188.544 81.5944 186.919 82.255L189.53 87.9121H186.901L184.567 82.7635H181.592V87.9121ZM181.592 76.278V80.6328H184.445C185.967 80.6328 186.884 79.8217 186.884 78.4277C186.884 77.0511 185.967 76.278 184.445 76.278H181.592ZM201.688 87.9121V74.1283H207.171C209.886 74.1283 211.546 75.5413 211.546 77.8432C211.546 79.3703 210.872 80.4633 209.575 81.0098C211.027 81.482 211.754 82.575 211.754 84.1782C211.754 86.5355 210.111 87.9121 207.274 87.9121H201.688ZM206.963 76.259H204.109V80.0102H207.032C208.347 80.0102 209.073 79.3132 209.073 78.087C209.073 76.8989 208.329 76.259 206.963 76.259ZM207.171 82.0475H204.109V85.7814H207.171C208.537 85.7814 209.281 85.1208 209.281 83.8755C209.281 82.7064 208.52 82.0475 207.171 82.0475ZM227.492 81.0098C227.492 85.1969 224.725 88.1369 220.764 88.1369C216.838 88.1369 214.123 85.2159 214.123 81.0098C214.123 76.8245 216.856 73.8827 220.799 73.8827C224.725 73.8827 227.492 76.8055 227.492 81.0098ZM224.932 81.0098C224.932 78.068 223.324 76.2019 220.799 76.2019C218.256 76.2019 216.648 78.068 216.648 81.0098C216.648 83.9516 218.256 85.8177 220.799 85.8177C223.324 85.8177 224.932 83.9136 224.932 81.0098ZM233.493 73.1477L231.798 70.2059H233.597L234.686 72.072L235.759 70.2059H237.557L235.862 73.1477H233.493ZM229.878 77.9746C229.878 75.5603 231.885 73.8827 234.79 73.8827C237.575 73.8827 239.339 75.4289 239.425 77.9176H237.004C236.952 76.7294 236.105 76.0324 234.738 76.0324C233.251 76.0324 232.3 76.7484 232.3 77.8985C232.3 78.8791 232.819 79.4256 233.977 79.6903L236.139 80.1624C238.491 80.6709 239.65 81.878 239.65 83.9326C239.65 86.4974 237.644 88.156 234.617 88.156C231.677 88.156 229.74 86.5908 229.688 84.1211H232.11C232.127 85.2902 233.061 85.9872 234.617 85.9872C236.208 85.9872 237.229 85.2902 237.229 84.1402C237.229 83.2166 236.762 82.6701 235.638 82.4245L233.441 81.9334C231.106 81.4249 229.878 80.0863 229.878 77.9746ZM245.184 74.1283V81.3678L250.77 74.1283H253.624L249.058 80.0102L253.676 87.9121H250.891L247.467 82.0475L245.184 84.9703V87.9121H242.78V74.1283H245.184ZM268.307 81.0098C268.307 85.1969 265.557 88.1369 261.597 88.1369C257.654 88.1369 254.938 85.2159 254.938 81.0098C254.938 76.8245 257.671 73.8827 261.614 73.8827C265.557 73.8827 268.307 76.8055 268.307 81.0098ZM265.765 81.0098C265.765 78.068 264.139 76.2019 261.614 76.2019C259.089 76.2019 257.463 78.068 257.463 81.0098C257.463 83.9516 259.089 85.8177 261.614 85.8177C264.139 85.8177 265.765 83.9136 265.765 81.0098ZM274.62 87.9121L269.414 74.1283H271.974L274.983 82.0665C275.294 82.8949 275.554 83.7061 275.865 84.8181C276.193 83.6127 276.487 82.7635 276.747 82.0665L279.722 74.1283H282.229L277.093 87.9121H274.62ZM287.055 74.1283V87.9121H284.633V74.1283H287.055ZM299.42 70.3564L297.57 73.1477H295.875L297.276 70.3564H299.42ZM296.618 88.1369C292.606 88.1369 289.995 85.3473 289.995 81.0289C289.995 76.7484 292.693 73.9018 296.74 73.9018C299.991 73.9018 302.429 75.8059 302.896 78.7667H300.354C299.887 77.1635 298.504 76.2209 296.67 76.2209C294.128 76.2209 292.537 78.068 292.537 81.0098C292.537 83.9326 294.145 85.8177 296.67 85.8177C298.538 85.8177 299.974 84.8371 300.423 83.31H302.931C302.412 86.2138 299.887 88.1369 296.618 88.1369Z" fill="black"/>
<path fill-rule="evenodd" clip-rule="evenodd" d="M125.108 113.153H122.6L127.581 99.3696H130.054L135.018 113.153H132.475L131.369 109.966H126.215L125.108 113.153ZM128.497 103.481L126.941 107.93H130.677L129.086 103.481C128.965 103.123 128.844 102.707 128.809 102.424C128.74 102.688 128.636 103.104 128.497 103.481ZM140.12 99.3696V113.153H137.698V99.3696H140.12ZM146.519 113.153H144.115V99.3696H149.372C152.502 99.3696 154.336 100.954 154.336 103.669C154.336 105.516 153.471 106.836 151.845 107.496L154.457 113.153H151.828L149.493 108.005H146.519V113.153ZM146.519 101.519V105.874H149.372C150.894 105.874 151.811 105.065 151.811 103.669C151.811 102.292 150.894 101.519 149.372 101.519H146.519ZM163.64 108.401H160.614V113.153H158.192V99.3696H163.64C166.407 99.3696 168.206 101.18 168.206 103.877C168.206 106.535 166.39 108.401 163.64 108.401ZM163.173 101.519H160.614V106.253H163.139C164.799 106.253 165.681 105.366 165.681 103.858C165.681 102.349 164.782 101.519 163.173 101.519ZM183.512 106.253C183.512 110.438 180.762 113.38 176.801 113.38C172.858 113.38 170.143 110.457 170.143 106.253C170.143 102.066 172.876 99.124 176.819 99.124C180.762 99.124 183.512 102.047 183.512 106.253ZM180.969 106.253C180.969 103.311 179.344 101.443 176.819 101.443C174.294 101.443 172.668 103.311 172.668 106.253C172.668 109.193 174.294 111.061 176.819 111.061C179.344 111.061 180.969 109.157 180.969 106.253ZM189.115 113.153H186.694V99.3696H191.952C195.082 99.3696 196.915 100.954 196.915 103.669C196.915 105.516 196.05 106.836 194.425 107.496L197.053 113.153H194.407L192.073 108.005H189.115V113.153ZM189.115 101.519V105.874H191.952C193.491 105.874 194.39 105.065 194.39 103.669C194.39 102.292 193.491 101.519 191.952 101.519H189.115ZM199.042 101.594V99.3696H209.523V101.594H205.493V113.153H203.072V101.594H199.042Z" fill="#A7A9A9"/>
</svg>
