<svg width="286" height="31" viewBox="0 0 286 31" fill="none" xmlns="http://www.w3.org/2000/svg">
<mask id="mask0_1630_110362" style="mask-type:luminance" maskUnits="userSpaceOnUse" x="0" y="0" width="286" height="31">
<path d="M285.127 0H0V30.69H285.127V0Z" fill="white"/>
</mask>
<g mask="url(#mask0_1630_110362)">
<path fill-rule="evenodd" clip-rule="evenodd" d="M123.161 1.77058L121.276 2.99214L120.615 2.7039L122.785 0C120.634 1.24901 118.321 3.41763 116.883 5.51761L120.272 3.47252L117.051 7.52153L120.155 5.58624L116.533 9.69013L116.507 3.8088L118.84 2.27842C118.243 2.23725 117.648 2.22351 117.051 2.22351C109.619 2.22351 102.284 7.9676 99.1928 14.9333L107.545 9.66268L98.4023 19.1057L107.474 13.3754L98.6227 22.6469L107.468 17.0332L99.4975 25.8381L107.733 20.5607L101.662 28.0205L107.889 24.0401L103.768 29.8596C105.284 30.3949 106.956 30.6968 108.549 30.6968C117.265 30.6968 126.777 21.3636 126.777 11.9274C126.777 8.22151 124.969 5.30487 122.053 3.36272L123.168 1.77744L123.161 1.77058ZM109.158 8.59897L115.159 4.6735L109.703 11.0352L115.165 7.76858L109.781 13.9587L115.21 10.6715L109.664 17.0812L115.301 13.6705L109.593 19.9568L115.12 16.7656L109.14 23.2577L109.158 8.59211V8.59897Z" fill="#084983"/>
<path d="M91.267 23.2651V22.1739C90.969 22.3249 90.645 22.4278 90.2821 22.4827L88.8176 22.7092C88.0466 22.819 87.4893 23.0112 87.1329 23.2788C86.7766 23.5464 86.6016 23.9102 86.6016 24.37C86.6016 24.9396 86.7442 25.3719 87.0358 25.6739C87.3209 25.9758 87.7355 26.1337 88.2669 26.1337C89.1093 26.1337 89.8155 25.8935 90.3988 25.4062C90.794 25.07 91.0596 24.6856 91.1893 24.2533C91.2087 24.171 91.2282 24.0474 91.2411 23.869C91.2605 23.6837 91.267 23.4847 91.267 23.2651ZM87.9623 27.513C87.0358 27.513 86.2971 27.2523 85.7528 26.7239C85.2085 26.1955 84.9364 25.4885 84.9364 24.5895C84.9364 23.6905 85.1956 22.97 85.7075 22.4416C86.2194 21.9131 86.9644 21.5769 87.9429 21.4465L90.1202 21.1582C90.295 21.1445 90.4635 21.1102 90.6255 21.0621C90.8328 21.0073 90.9884 20.8906 91.105 20.7259C91.2152 20.5543 91.2735 20.3416 91.2735 20.0877V19.9984C91.2735 19.4563 91.0791 19.0376 90.6968 18.7288C90.3145 18.4269 89.7767 18.269 89.0899 18.269C88.403 18.269 87.9235 18.4269 87.5542 18.7563C87.1848 19.0789 86.9644 19.5592 86.8867 20.1906H85.4158C85.4936 19.0926 85.8564 18.269 86.5109 17.7131C87.1653 17.1573 88.1049 16.8827 89.3231 16.8827C90.4765 16.8827 91.3577 17.1504 91.9604 17.6788C92.563 18.2072 92.8675 18.9828 92.8675 19.9916V25.516C92.8675 25.6807 92.9128 25.818 93.0166 25.921C93.1137 26.0239 93.2434 26.0788 93.4118 26.0788C93.4571 26.0788 93.5285 26.0788 93.6192 26.0582C93.7098 26.0444 93.8136 26.0239 93.9172 26.0033V27.2249C93.7618 27.2867 93.5997 27.3415 93.4247 27.3758C93.2499 27.4171 93.1073 27.4307 92.9907 27.4307C92.388 27.4307 91.9474 27.2523 91.6753 26.9023C91.4938 26.669 91.3707 26.3464 91.2929 25.921C91.1763 26.0788 91.0402 26.2298 90.8847 26.3739C90.0877 27.1288 89.1093 27.5062 87.9559 27.5062L87.9623 27.513ZM76.4284 27.2454V13.4514H78.0224V21.3984L82.0204 17.1985H84.0486L80.4458 20.9249L84.2948 27.2454H82.2148L79.2666 22.1396L78.016 23.4297V27.2454H76.422H76.4284ZM67.9529 17.1985V23.6768C67.9529 24.5209 68.1085 25.1249 68.413 25.5023C68.7175 25.8729 69.2165 26.0582 69.9098 26.0582C70.6745 26.0582 71.2835 25.7425 71.7306 25.118C72.1778 24.4866 72.4045 23.6357 72.4045 22.5582V17.1985H73.9985V27.2454H72.4823V25.715C72.3786 25.9004 72.2555 26.0719 72.1259 26.2298C71.4455 27.0876 70.5966 27.513 69.5794 27.513C68.5037 27.513 67.7002 27.2249 67.1624 26.6553C66.6246 26.0856 66.3589 25.2347 66.3589 24.0955V17.1916H67.9529V17.1985ZM62.3091 27.2454V13.4514H63.9031V27.2454H62.3091ZM52.9459 23.2651V22.1739C52.6478 22.3249 52.3238 22.4278 51.961 22.4827L50.4965 22.7092C49.7254 22.819 49.1682 23.0112 48.8118 23.2788C48.4554 23.5464 48.2805 23.9102 48.2805 24.37C48.2805 24.9396 48.423 25.3719 48.7146 25.6739C48.9997 25.9758 49.4144 26.1337 49.9458 26.1337C50.7881 26.1337 51.4944 25.8935 52.0776 25.4062C52.4729 25.07 52.7386 24.6856 52.8681 24.2533C52.8875 24.171 52.907 24.0474 52.9199 23.869C52.9394 23.6837 52.9459 23.4847 52.9459 23.2651ZM49.6348 27.513C48.7081 27.513 47.9694 27.2523 47.4251 26.7239C46.8808 26.1955 46.6087 25.4885 46.6087 24.5895C46.6087 23.6905 46.8679 22.97 47.3798 22.4416C47.8917 21.9131 48.6369 21.5769 49.6153 21.4465L51.7925 21.1582C51.9675 21.1445 52.1359 21.1102 52.2979 21.0621C52.5053 21.0073 52.6607 20.8906 52.7774 20.7259C52.8875 20.5543 52.9459 20.3416 52.9459 20.0877V19.9984C52.9459 19.4563 52.7515 19.0376 52.3692 18.7288C51.9869 18.4269 51.4491 18.269 50.7622 18.269C50.0754 18.269 49.5959 18.4269 49.2265 18.7563C48.8572 19.0789 48.6369 19.5592 48.5591 20.1906H47.0882C47.1659 19.0926 47.5289 18.269 48.1833 17.7131C48.8378 17.1573 49.7773 16.8827 50.9955 16.8827C52.1489 16.8827 53.0301 17.1504 53.6327 17.6788C54.2354 18.2072 54.5399 18.9828 54.5399 19.9916V25.516C54.5399 25.6807 54.5853 25.818 54.6889 25.921C54.7862 26.0239 54.9157 26.0788 55.0842 26.0788C55.136 26.0788 55.2008 26.0788 55.2916 26.0582C55.3823 26.0444 55.4859 26.0239 55.5896 26.0033V27.2249C55.4341 27.2867 55.2722 27.3415 55.0972 27.3758C54.9222 27.4171 54.7797 27.4307 54.663 27.4307C54.0604 27.4307 53.6198 27.2523 53.3476 26.9023C53.1662 26.669 53.0431 26.3464 52.9654 25.921C52.8487 26.0788 52.7126 26.2298 52.5571 26.3739C51.7601 27.1288 50.7816 27.5062 49.6283 27.5062L49.6348 27.513ZM37.0511 27.2454V17.1985H38.5673V18.6739L38.9238 18.1729C39.6106 17.3151 40.4789 16.8897 41.5157 16.8897C42.5524 16.8897 43.3689 17.1916 43.9326 17.7955C44.4963 18.3994 44.7814 19.2504 44.7814 20.3621V27.2523H43.1874V20.9317C43.1874 20.0465 43.0254 19.4082 42.7079 19.0171C42.3839 18.6259 41.8655 18.4269 41.1463 18.4269C40.3752 18.4269 39.7726 18.7357 39.3255 19.3534C38.8783 19.9709 38.6516 20.8083 38.6516 21.8582V27.2454H37.0575H37.0511ZM30.9537 15.8533L29.1523 13.1426H30.6038L31.8025 14.9543H31.7831L32.9819 13.1426H34.4333L32.6319 15.8533H30.9537ZM35.4506 23.6357C35.2822 24.8984 34.861 25.8592 34.1805 26.5249C33.5002 27.1906 32.5995 27.52 31.4721 27.52C30.215 27.52 29.2106 27.0395 28.4654 26.0788C27.7139 25.1249 27.338 23.8279 27.338 22.2082C27.338 20.5886 27.7268 19.2984 28.5044 18.3308C29.2819 17.37 30.3252 16.8897 31.6341 16.8897C32.7745 16.8897 33.6817 17.2191 34.362 17.8778C35.0424 18.5367 35.4052 19.4425 35.4506 20.6023H33.9278C33.8631 19.8886 33.6233 19.3327 33.2216 18.9415C32.8133 18.5504 32.2691 18.3514 31.5886 18.3514C30.7852 18.3514 30.1567 18.6945 29.6966 19.3808C29.243 20.067 29.0098 21.0073 29.0098 22.2082C29.0098 23.4847 29.2236 24.4455 29.6448 25.0906C30.0725 25.7357 30.701 26.0582 31.5433 26.0582C32.1654 26.0582 32.6773 25.8454 33.0984 25.4269C33.5132 25.0082 33.7918 24.4111 33.9278 23.6357H35.4506ZM23.6899 23.2651V22.1739C23.3918 22.3249 23.0679 22.4278 22.7049 22.4827L21.2406 22.7092C20.4695 22.819 19.9123 23.0112 19.5558 23.2788C19.1995 23.5464 19.0245 23.9102 19.0245 24.37C19.0245 24.9396 19.1671 25.3719 19.4587 25.6739C19.7438 25.9758 20.1585 26.1337 20.6898 26.1337C21.5322 26.1337 22.2385 25.8935 22.8216 25.4062C23.2169 25.07 23.4825 24.6856 23.6122 24.2533C23.6316 24.171 23.651 24.0474 23.664 23.869C23.6834 23.6837 23.6899 23.4847 23.6899 23.2651ZM20.3852 27.513C19.4587 27.513 18.7199 27.2523 18.1757 26.7239C17.6314 26.1955 17.3592 25.4885 17.3592 24.5895C17.3592 23.6905 17.6184 22.97 18.1303 22.4416C18.6422 21.9131 19.3874 21.5769 20.3658 21.4465L22.5365 21.1582C22.7114 21.1445 22.8799 21.1102 23.042 21.0621C23.2492 21.0073 23.4048 20.8906 23.5214 20.7259C23.6316 20.5543 23.6899 20.3416 23.6899 20.0877V19.9984C23.6899 19.4563 23.4955 19.0376 23.1132 18.7288C22.7309 18.4269 22.193 18.269 21.5063 18.269C20.8194 18.269 20.3399 18.4269 19.9706 18.7563C19.6012 19.0789 19.3809 19.5592 19.3031 20.1906H17.8323C17.91 19.0926 18.2728 18.269 18.9273 17.7131C19.5817 17.1573 20.5213 16.8827 21.7395 16.8827C22.8929 16.8827 23.7741 17.1504 24.3768 17.6788C24.9794 18.2072 25.2839 18.9828 25.2839 19.9916V25.516C25.2839 25.6807 25.3292 25.818 25.433 25.921C25.5301 26.0239 25.6598 26.0788 25.8282 26.0788C25.88 26.0788 25.9449 26.0788 26.0356 26.0582C26.1262 26.0444 26.23 26.0239 26.3336 26.0033V27.2249C26.1781 27.2867 26.0161 27.3415 25.8411 27.3758C25.6662 27.4171 25.5236 27.4307 25.4071 27.4307C24.8044 27.4307 24.3638 27.2523 24.0917 26.9023C23.9102 26.669 23.787 26.3464 23.7093 25.921C23.5927 26.0788 23.4566 26.2298 23.3012 26.3739C22.5042 27.1288 21.5257 27.5062 20.3722 27.5062L20.3852 27.513ZM12.0652 27.2454V17.1985H13.5815V18.9142C13.7176 18.6464 13.8601 18.3994 14.0157 18.1798C14.6183 17.3151 15.3634 16.8897 16.2382 16.8897C16.3808 16.8897 16.5363 16.917 16.6918 16.972V18.7014H16.3678C15.506 18.6945 14.8386 18.969 14.372 19.5181C13.9055 20.067 13.6658 20.8426 13.6658 21.8582V27.2454H12.0717H12.0652ZM0 25.6259L8.0219 15.1053H0.635014V13.4514H10.2315V15.0779L2.20311 25.5984H10.2315V27.2523H0V25.6259Z" fill="#5B5B5B"/>
<path d="M222.917 27.3273V17.2803H224.434V18.7695L224.758 18.3166C225.47 17.4176 226.326 16.9715 227.317 16.9715C228.173 16.9715 228.846 17.2391 229.345 17.7676C229.572 18.0077 229.747 18.2754 229.87 18.5843L230.129 18.2411C230.809 17.397 231.633 16.9715 232.578 16.9715C233.525 16.9715 234.334 17.2529 234.879 17.8293C235.423 18.4058 235.688 19.2156 235.688 20.2724V27.3342H234.095V20.8489C234.095 20.0803 233.946 19.5038 233.654 19.1127C233.356 18.7215 232.928 18.5225 232.358 18.5225C231.671 18.5225 231.121 18.8106 230.712 19.3803C230.304 19.9499 230.103 20.7254 230.103 21.693V27.3478H228.509V20.4577C228.509 19.8332 228.38 19.3529 228.108 19.0235C227.842 18.694 227.447 18.5293 226.935 18.5293C226.228 18.5293 225.646 18.8519 225.198 19.4901C224.744 20.1283 224.525 20.9587 224.525 21.9676V27.3548H222.93L222.917 27.3273ZM218.919 13.5127H220.552V15.4343H218.919V13.5127ZM218.939 27.3273V17.2803H220.533V27.3273H218.939ZM208.791 27.3273V17.2803H210.307V18.7558L210.664 18.2548C211.351 17.397 212.219 16.9715 213.255 16.9715C214.293 16.9715 215.109 17.2734 215.673 17.8773C216.237 18.4813 216.521 19.3322 216.521 20.4441V27.3342H214.928V21.0136C214.928 20.1283 214.766 19.4901 214.448 19.0989C214.125 18.7077 213.605 18.5087 212.887 18.5087C212.116 18.5087 211.513 18.8176 211.066 19.4352C210.619 20.0529 210.392 20.8901 210.392 21.9401V27.3273H208.798H208.791ZM202.564 26.1332C203.4 26.1332 204.067 25.7832 204.56 25.0901C205.059 24.397 205.305 23.4567 205.305 22.2832C205.305 21.1097 205.059 20.1695 204.56 19.4763C204.061 18.7833 203.4 18.4332 202.564 18.4332C201.728 18.4332 201.061 18.7833 200.569 19.4763C200.077 20.1764 199.83 21.1097 199.83 22.2832C199.83 23.4567 200.077 24.397 200.569 25.0901C201.061 25.7832 201.728 26.1332 202.564 26.1332ZM202.564 27.595C201.249 27.595 200.193 27.1077 199.377 26.1264C198.56 25.1518 198.158 23.8685 198.158 22.2832C198.158 20.6979 198.56 19.4077 199.377 18.4332C200.186 17.4588 201.249 16.9715 202.564 16.9715C203.879 16.9715 204.955 17.4588 205.765 18.4332C206.576 19.4077 206.977 20.6911 206.977 22.2832C206.977 23.8754 206.576 25.1518 205.765 26.1264C204.955 27.1008 203.887 27.595 202.564 27.595ZM192.878 27.3273V17.2803H194.393V18.996C194.529 18.7283 194.672 18.4813 194.828 18.2617C195.43 17.397 196.176 16.9715 197.05 16.9715C197.192 16.9715 197.348 16.9989 197.503 17.0539V18.7833H197.18C196.318 18.7763 195.65 19.0509 195.184 19.5999C194.717 20.1489 194.478 20.9244 194.478 21.9401V27.3273H192.884H192.878ZM189.1 21.5215C189.054 20.5881 188.834 19.8675 188.445 19.346C188.018 18.7695 187.382 18.4813 186.547 18.4813C185.711 18.4813 185.037 18.8106 184.538 19.4763C184.143 19.9979 183.903 20.6774 183.819 21.5215H189.1ZM186.43 27.595C185.088 27.595 184.032 27.142 183.267 26.243C182.496 25.3371 182.114 24.095 182.114 22.5029C182.114 20.8146 182.516 19.4695 183.332 18.4675C184.143 17.4656 185.238 16.9715 186.605 16.9715C187.842 16.9715 188.847 17.4588 189.605 18.4401C190.369 19.4146 190.745 20.6979 190.745 22.2901L190.725 22.894H183.805C183.87 23.896 184.084 24.6578 184.453 25.1861C184.9 25.8244 185.606 26.1469 186.579 26.1469C187.188 26.1469 187.719 25.9685 188.173 25.6048C188.627 25.241 188.905 24.7881 189.002 24.2253H190.583C190.35 25.3234 189.871 26.1607 189.165 26.7371C188.457 27.3135 187.544 27.6018 186.423 27.6018L186.43 27.595ZM178.324 13.5264H180.086V23.4567C180.086 24.8155 179.762 25.8587 179.115 26.5999C178.466 27.341 177.547 27.7047 176.354 27.7047C175.162 27.7047 174.196 27.3616 173.541 26.6753C172.881 25.9891 172.576 25.0489 172.628 23.8411V22.8871H174.28V23.8411C174.28 24.5685 174.455 25.1313 174.792 25.5225C175.135 25.9136 175.621 26.1126 176.25 26.1126C176.879 26.1126 177.391 25.8724 177.766 25.3921C178.136 24.9116 178.324 24.2666 178.324 23.443V13.5195V13.5264ZM164.464 13.5127H166.097V15.4343H164.464V13.5127ZM164.483 27.3273V17.2803H166.077V27.3273H164.483ZM162.87 27.3067C162.325 27.3959 161.923 27.4439 161.678 27.4439C160.978 27.4439 160.485 27.2792 160.199 26.9567C159.914 26.6342 159.766 26.0714 159.766 25.2754V18.6459H158.457V17.2803H159.766V14.4735H161.36V17.2803H162.863V18.6459H161.36V25.2754C161.36 25.5018 161.444 25.6802 161.613 25.8106C161.781 25.941 162.008 26.0097 162.293 26.0097H162.863V27.3135L162.87 27.3067ZM155.82 21.5215C155.774 20.5881 155.554 19.8675 155.165 19.346C154.738 18.7695 154.103 18.4813 153.267 18.4813C152.431 18.4813 151.757 18.8106 151.258 19.4763C150.863 19.9979 150.623 20.6774 150.539 21.5215H155.82ZM153.156 27.595C151.815 27.595 150.758 27.142 149.995 26.243C149.223 25.3371 148.84 24.095 148.84 22.5029C148.84 20.8146 149.249 19.4695 150.06 18.4675C150.869 17.4656 151.964 16.9715 153.332 16.9715C154.568 16.9715 155.573 17.4588 156.332 18.4401C157.089 19.4215 157.472 20.6979 157.472 22.2901L157.453 22.894H150.532C150.597 23.896 150.811 24.6578 151.18 25.1861C151.628 25.8244 152.334 26.1469 153.305 26.1469C153.914 26.1469 154.446 25.9685 154.9 25.6048C155.353 25.241 155.632 24.7881 155.729 24.2253H157.31C157.077 25.3234 156.597 26.1607 155.891 26.7371C155.185 27.3135 154.271 27.6018 153.15 27.6018L153.156 27.595ZM139.193 17.2734H141.052L143.592 25.495L146.216 17.2734H147.972L144.435 27.3205H142.724L139.18 17.2734H139.193ZM136.575 20.1764C136.53 19.6205 136.315 19.1882 135.933 18.8862C135.551 18.5843 135.039 18.4264 134.397 18.4264C133.756 18.4264 133.232 18.55 132.882 18.7901C132.538 19.0303 132.363 19.394 132.363 19.8607C132.363 20.2176 132.486 20.4852 132.726 20.6704C132.965 20.8558 133.452 21.0342 134.171 21.2127L135.823 21.6244C136.743 21.8646 137.41 22.194 137.806 22.6126C138.195 23.0244 138.395 23.6077 138.395 24.3489C138.395 25.344 138.059 26.1332 137.378 26.7166C136.698 27.2999 135.791 27.5881 134.63 27.5881C133.296 27.5881 132.299 27.3067 131.644 26.7509C130.99 26.1881 130.626 25.3097 130.549 24.1087H132.071C132.149 24.8224 132.388 25.3303 132.791 25.6459C133.192 25.9617 133.801 26.1264 134.624 26.1264C135.344 26.1264 135.888 25.9822 136.257 25.694C136.627 25.4057 136.815 24.9871 136.815 24.4381C136.815 24.0881 136.692 23.8204 136.451 23.6352C136.206 23.4567 135.719 23.2715 134.988 23.093L133.341 22.6813C132.447 22.4548 131.812 22.1391 131.437 21.7273C131.061 21.3293 130.866 20.7665 130.866 20.0391C130.866 19.0921 131.184 18.344 131.819 17.7882C132.453 17.2323 133.315 16.9578 134.404 16.9578C135.492 16.9578 136.387 17.2391 137.042 17.8157C137.696 18.3852 138.046 19.1675 138.084 20.1695H136.581L136.575 20.1764Z" fill="#5B5B5B"/>
<path d="M282.906 23.3609L282.291 25.3374H283.521L282.906 23.3609ZM280.709 27.1902L282.356 22.2628H283.483L285.128 27.1902H284.098L283.781 26.1883H282.018L281.714 27.1902H280.709ZM276.466 27.1902V22.2628H277.437V24.301L279.219 22.2628H280.456L278.597 24.2735L280.58 27.1902H279.31L277.91 25.0216L277.437 25.5363V27.1902H276.466ZM274.592 23.7383C274.574 23.5049 274.476 23.3197 274.301 23.1825C274.126 23.0451 273.892 22.9765 273.607 22.9765C273.362 22.9765 273.167 23.0314 273.031 23.1481C272.895 23.2648 272.824 23.4226 272.824 23.6285C272.824 23.7795 272.895 23.8893 273.044 23.9716C273.186 24.054 273.491 24.1501 273.957 24.253C274.631 24.4177 275.085 24.603 275.312 24.8089C275.539 25.0148 275.655 25.351 275.655 25.8109C275.655 26.2707 275.487 26.6412 275.137 26.9089C274.793 27.1834 274.327 27.3138 273.744 27.3138C273.16 27.3138 272.694 27.1697 272.364 26.8814C272.033 26.5932 271.852 26.1814 271.832 25.653H272.771C272.778 25.9138 272.869 26.1128 273.038 26.2501C273.206 26.3941 273.439 26.4628 273.744 26.4628C274.048 26.4628 274.295 26.4079 274.469 26.305C274.645 26.2021 274.728 26.051 274.728 25.8657C274.728 25.6805 274.663 25.5432 274.541 25.454C274.418 25.3647 274.159 25.2756 273.757 25.1863C273.018 25.0148 272.526 24.8226 272.279 24.6167C272.033 24.4177 271.91 24.102 271.91 23.6765C271.91 23.1961 272.072 22.8187 272.403 22.5373C272.727 22.256 273.167 22.1187 273.724 22.1187C274.242 22.1187 274.671 22.2628 274.995 22.5511C275.318 22.8393 275.499 23.2373 275.539 23.7314H274.592V23.7383ZM269.117 27.1902V23.1344H267.711V22.2628H271.495V23.1344H270.089V27.1902H269.117ZM265.268 23.3609L264.653 25.3374H265.89L265.275 23.3609H265.268ZM263.071 27.1902L264.718 22.2628H265.845L267.491 27.1902H266.46L266.143 26.1883H264.38L264.076 27.1902H263.071ZM258.743 22.2628H259.773L260.797 26.0304L261.821 22.2628H262.819L261.244 27.1902H260.318L258.743 22.2628ZM255.406 24.4177H256.534C256.787 24.4177 256.975 24.3628 257.097 24.253C257.22 24.1431 257.285 23.9785 257.285 23.7589C257.285 23.5392 257.226 23.3815 257.104 23.2716C256.987 23.1618 256.805 23.1069 256.566 23.1069H255.399V24.4109L255.406 24.4177ZM254.434 27.1902V22.2628H256.78C257.226 22.2628 257.584 22.3864 257.849 22.6402C258.121 22.8942 258.257 23.2236 258.257 23.6353C258.257 24.1088 258.108 24.4589 257.804 24.6785C257.726 24.7334 257.635 24.7883 257.531 24.8294C257.59 24.8569 257.641 24.8844 257.687 24.9119C257.952 25.0766 258.088 25.3579 258.102 25.7559L258.128 26.5657C258.128 26.7236 258.147 26.8403 258.173 26.9089C258.199 26.9775 258.25 27.0323 258.329 27.0668V27.1972H257.259C257.234 27.1422 257.214 27.0323 257.194 26.8677C257.175 26.6961 257.169 26.5177 257.162 26.3255V25.8726C257.149 25.653 257.091 25.4951 256.975 25.399C256.858 25.3029 256.657 25.255 256.378 25.255H255.413V27.1972H254.44L254.434 27.1902ZM249.717 27.1902V22.2628H250.689V24.1088H252.51V22.2628H253.481V27.1902H252.51V24.9598H250.689V27.1902H249.717ZM277.502 15.1942L276.887 17.1707H278.117L277.502 15.1942ZM275.305 19.0236L276.951 14.0962H278.079L279.725 19.0236H278.694L278.384 18.0216H276.614L276.31 19.0236H275.305ZM271.715 19.0236V14.0962H272.688V18.152H275.001V19.0236H271.715ZM267.393 19.0236V14.0962H270.815V14.9677H268.366V16.0109H270.64V16.8618H268.366V18.152H270.925V19.0236H267.393ZM264.439 19.0236V14.9677H263.033V14.0962H266.817V14.9677H265.411V19.0236H264.439ZM260.337 13.5952L259.605 12.6001H260.33L260.745 13.1629L261.153 12.6001H261.879L261.147 13.5952H260.337ZM261.633 15.5716C261.614 15.3383 261.523 15.1531 261.341 15.0158C261.167 14.8786 260.933 14.81 260.648 14.81C260.402 14.81 260.208 14.8648 260.071 14.9815C259.929 15.0981 259.864 15.256 259.864 15.4619C259.864 15.6059 259.935 15.7227 260.085 15.8051C260.227 15.8874 260.532 15.9835 260.998 16.0932C261.672 16.2511 262.126 16.4363 262.353 16.6491C262.579 16.855 262.695 17.1913 262.695 17.6511C262.695 18.1109 262.527 18.4815 262.177 18.7491C261.833 19.0236 261.368 19.1609 260.785 19.1609C260.201 19.1609 259.735 19.0167 259.405 18.7286C259.073 18.4403 258.893 18.0285 258.873 17.5H259.812C259.818 17.7608 259.909 17.9599 260.078 18.0972C260.247 18.2413 260.48 18.3099 260.785 18.3099C261.089 18.3099 261.335 18.255 261.51 18.152C261.685 18.0423 261.769 17.8982 261.769 17.7129C261.769 17.5275 261.704 17.3903 261.582 17.3011C261.458 17.2119 261.199 17.1226 260.797 17.0334C260.059 16.855 259.566 16.6698 259.32 16.4638C259.073 16.2648 258.95 15.9491 258.95 15.5236C258.95 15.0433 259.112 14.6658 259.443 14.3845C259.767 14.103 260.214 13.9658 260.765 13.9658C261.283 13.9658 261.704 14.1099 262.035 14.405C262.359 14.6933 262.541 15.0845 262.579 15.5786H261.633V15.5716ZM256.261 15.1942L255.646 17.1707H256.884L256.267 15.1942H256.261ZM254.071 19.0236L255.717 14.0962H256.845L258.49 19.0236H257.46L257.143 18.0216H255.38L255.075 19.0236H254.071ZM249.821 19.0236V14.0962H250.792V16.1344L252.574 14.0962H253.812L251.953 16.107L253.936 19.0236H252.665L251.265 16.855L250.792 17.3628V19.0167H249.821V19.0236Z" fill="#5B5B5B"/>
<path d="M242.834 27.1902V13.9932" stroke="#084983" stroke-width="1.27289" stroke-miterlimit="22.93"/>
</g>
</svg>
